<?xml version="1.0" encoding="utf-8"?>
<!-- Generator: Adobe Illustrator 19.0.0, SVG Export Plug-In . SVG Version: 6.00 Build 0)  -->
<svg version="1.1" id="Layer_1" xmlns="http://www.w3.org/2000/svg" xmlns:xlink="http://www.w3.org/1999/xlink" x="0px" y="0px"
	 viewBox="0 0 96 96" style="enable-background:new 0 0 96 96;" xml:space="preserve">
<style type="text/css">
	.st0{fill:#333333;}
</style>
<g id="XMLID_2_">
	<path id="XMLID_6_" class="st0" d="M58,38c0-2.8-1-5.1-2.9-7.1S50.8,28,48,28s-5.1,1-7.1,2.9S38,35.2,38,38s1,5.1,2.9,7.1
		S45.2,48,48,48s5.1-1,7.1-2.9S58,40.8,58,38z M68,38c0,2.8-0.4,5.2-1.3,7L52.5,75.2c-0.4,0.9-1,1.5-1.9,2S48.9,78,48,78
		s-1.8-0.2-2.6-0.7s-1.4-1.2-1.8-2L29.3,45c-0.9-1.8-1.3-4.2-1.3-7c0-5.5,2-10.2,5.9-14.1S42.5,18,48,18s10.2,2,14.1,5.9
		S68,32.5,68,38z"/>
</g>
</svg>
